<svg aria-hidden="true" style="position: absolute; width: 0; height: 0; overflow: hidden;" version="1.1" xmlns="http://www.w3.org/2000/svg" xmlns:xlink="http://www.w3.org/1999/xlink">
<defs>
<symbol id="icon-question" viewBox="0 0 32 32">
<path d="M26.357 9.1v-0.085c0-5.58-4.422-9.015-10.732-9.015-3.64 0-6.533 1.026-8.851 2.615-1.347 0.923-1.469 2.948-0.482 4.25l0.72 0.95c0.987 1.302 2.755 1.426 4.185 0.636 1.304-0.72 2.627-1.11 3.869-1.11 2.060 0 3.219 0.901 3.219 2.361v0.043c0 1.846-1.76 4.484-6.74 4.913l-0.171 0.193c-0.095 0.107 0.025 1.503 0.266 3.119l0.198 1.318c0.241 1.616 1.6 2.925 3.034 2.925s2.713-0.615 2.854-1.373c0.143-0.759 0.258-1.374 0.258-1.374 4.764-1.16 8.371-4.957 8.371-10.366z"></path>
<path d="M13.474 24.702c-1.634 0-2.958 1.324-2.958 2.958v1.381c0 1.634 1.324 2.958 2.958 2.958h2.54c1.634 0 2.958-1.324 2.958-2.958v-1.381c0-1.634-1.325-2.958-2.958-2.958h-2.54z"></path>
</symbol>
</defs>
</svg>
